# Exported from Wings 3D 1.4.1
mtllib h_yperbolic_paraboloid.mtl
o cube2
#121 vertices, 100 faces
v -1.00000000 -0.39022222 1.00000000
v 1.00000000 -1.00000000 1.00000000
v -1.00000000 -1.00000000 -1.00000000
v 1.00000000 -0.39022222 -1.00000000
v -0.80000000 -0.45120000 1.00000000
v -0.60000000 -0.51217778 1.00000000
v -0.40000000 -0.57315556 1.00000000
v -0.20000000 -0.63413333 1.00000000
v -5.5511151e-17 -0.69511111 1.00000000
v 0.20000000 -0.75608889 1.00000000
v 0.40000000 -0.81706667 1.00000000
v 0.60000000 -0.87804444 1.00000000
v 0.80000000 -0.93902222 1.00000000
v -1.00000000 -0.45120000 0.80000000
v -1.00000000 -0.51217778 0.60000000
v -1.00000000 -0.57315556 0.40000000
v -1.00000000 -0.63413333 0.20000000
v -1.00000000 -0.69511111 5.5511151e-17
v -1.00000000 -0.75608889 -0.20000000
v -1.00000000 -0.81706667 -0.40000000
v -1.00000000 -0.87804444 -0.60000000
v -1.00000000 -0.93902222 -0.80000000
v 1.00000000 -0.93902222 0.80000000
v 1.00000000 -0.87804444 0.60000000
v 1.00000000 -0.81706667 0.40000000
v 1.00000000 -0.75608889 0.20000000
v 1.00000000 -0.69511111 5.5511151e-17
v 1.00000000 -0.63413333 -0.20000000
v 1.00000000 -0.57315556 -0.40000000
v 1.00000000 -0.51217778 -0.60000000
v 1.00000000 -0.45120000 -0.80000000
v -0.80000000 -0.93902222 -1.00000000
v -0.60000000 -0.87804444 -1.00000000
v -0.40000000 -0.81706667 -1.00000000
v -0.20000000 -0.75608889 -1.00000000
v -5.5511151e-17 -0.69511111 -1.00000000
v 0.20000000 -0.63413333 -1.00000000
v 0.40000000 -0.57315556 -1.00000000
v 0.60000000 -0.51217778 -1.00000000
v 0.80000000 -0.45120000 -1.00000000
v -0.80000000 -0.49998222 0.80000000
v -0.80000000 -0.54876444 0.60000000
v -0.80000000 -0.59754667 0.40000000
v -0.80000000 -0.64632889 0.20000000
v -0.80000000 -0.69511111 5.5511151e-17
v -0.80000000 -0.74389333 -0.20000000
v -0.80000000 -0.79267556 -0.40000000
v -0.80000000 -0.84145778 -0.60000000
v -0.80000000 -0.89024000 -0.80000000
v -0.60000000 -0.84145778 -0.80000000
v -0.60000000 -0.80487111 -0.60000000
v -0.60000000 -0.76828444 -0.40000000
v -0.60000000 -0.73169778 -0.20000000
v -0.60000000 -0.69511111 -5.5511151e-17
v -0.60000000 -0.65852444 0.20000000
v -0.60000000 -0.62193778 0.40000000
v -0.60000000 -0.58535111 0.60000000
v -0.60000000 -0.54876444 0.80000000
v -0.40000000 -0.79267556 -0.80000000
v -0.40000000 -0.76828444 -0.60000000
v -0.40000000 -0.74389333 -0.40000000
v -0.40000000 -0.71950222 -0.20000000
v -0.40000000 -0.69511111 -5.5511151e-17
v -0.40000000 -0.67072000 0.20000000
v -0.40000000 -0.64632889 0.40000000
v -0.40000000 -0.62193778 0.60000000
v -0.40000000 -0.59754667 0.80000000
v -0.20000000 -0.64632889 0.80000000
v -0.20000000 -0.65852444 0.60000000
v -0.20000000 -0.67072000 0.40000000
v -0.20000000 -0.68291556 0.20000000
v -0.20000000 -0.69511111 5.5511151e-17
v -0.20000000 -0.70730667 -0.20000000
v -0.20000000 -0.71950222 -0.40000000
v -0.20000000 -0.73169778 -0.60000000
v -0.20000000 -0.74389333 -0.80000000
v -5.5511151e-17 -0.69511111 0.80000000
v -5.5511151e-17 -0.69511111 0.60000000
v -5.5511151e-17 -0.69511111 0.40000000
v -5.5511151e-17 -0.69511111 0.20000000
v -5.5511151e-17 -0.69511111 5.5511151e-17
v -5.5511151e-17 -0.69511111 -0.20000000
v -5.5511151e-17 -0.69511111 -0.40000000
v -5.5511151e-17 -0.69511111 -0.60000000
v -5.5511151e-17 -0.69511111 -0.80000000
v 0.20000000 -0.74389333 0.80000000
v 0.20000000 -0.73169778 0.60000000
v 0.20000000 -0.71950222 0.40000000
v 0.20000000 -0.70730667 0.20000000
v 0.20000000 -0.69511111 5.5511151e-17
v 0.20000000 -0.68291556 -0.20000000
v 0.20000000 -0.67072000 -0.40000000
v 0.20000000 -0.65852444 -0.60000000
v 0.20000000 -0.64632889 -0.80000000
v 0.40000000 -0.79267556 0.80000000
v 0.40000000 -0.76828444 0.60000000
v 0.40000000 -0.74389333 0.40000000
v 0.40000000 -0.71950222 0.20000000
v 0.40000000 -0.69511111 5.5511151e-17
v 0.40000000 -0.67072000 -0.20000000
v 0.40000000 -0.64632889 -0.40000000
v 0.40000000 -0.62193778 -0.60000000
v 0.40000000 -0.59754667 -0.80000000
v 0.60000000 -0.84145778 0.80000000
v 0.60000000 -0.80487111 0.60000000
v 0.60000000 -0.76828444 0.40000000
v 0.60000000 -0.73169778 0.20000000
v 0.60000000 -0.69511111 5.5511151e-17
v 0.60000000 -0.65852444 -0.20000000
v 0.60000000 -0.62193778 -0.40000000
v 0.60000000 -0.58535111 -0.60000000
v 0.60000000 -0.54876444 -0.80000000
v 0.80000000 -0.89024000 0.80000000
v 0.80000000 -0.84145778 0.60000000
v 0.80000000 -0.79267556 0.40000000
v 0.80000000 -0.74389333 0.20000000
v 0.80000000 -0.69511111 5.5511151e-17
v 0.80000000 -0.64632889 -0.20000000
v 0.80000000 -0.59754667 -0.40000000
v 0.80000000 -0.54876444 -0.60000000
v 0.80000000 -0.49998222 -0.80000000
vn -0.25581363 -0.93226540 0.25581363
vn -0.25581363 -0.93226540 -0.25581363
vn 0.25581363 -0.93226540 0.25581363
vn 0.25581363 -0.93226540 -0.25581363
vn -0.25759971 -0.93877446 0.22879010
vn -0.26060114 -0.94971262 0.17358856
vn -0.26281027 -0.95776338 0.11670505
vn -0.26416296 -0.96269301 5.8652351e-2
vn -0.26461851 -0.96435317 -1.2495407e-16
vn -0.26416296 -0.96269301 -5.8652351e-2
vn -0.26281027 -0.95776338 -0.11670505
vn -0.26060114 -0.94971262 -0.17358856
vn -0.25759971 -0.93877446 -0.22879010
vn -0.22879010 -0.93877446 0.25759971
vn -0.17358856 -0.94971262 0.26060114
vn -0.11670505 -0.95776338 0.26281027
vn -5.8652351e-2 -0.96269301 0.26416296
vn 1.0742579e-15 -0.96435317 0.26461851
vn 5.8652351e-2 -0.96269301 0.26416296
vn 0.11670505 -0.95776338 0.26281027
vn 0.17358856 -0.94971262 0.26060114
vn 0.22879010 -0.93877446 0.25759971
vn -0.22879010 -0.93877446 -0.25759971
vn -0.17358856 -0.94971262 -0.26060114
vn -0.11670505 -0.95776338 -0.26281027
vn -5.8652351e-2 -0.96269301 -0.26416296
vn 0.0000000e+0 -0.96435317 -0.26461851
vn 5.8652351e-2 -0.96269301 -0.26416296
vn 0.11670505 -0.95776338 -0.26281027
vn 0.17358856 -0.94971262 -0.26060114
vn 0.22879010 -0.93877446 -0.25759971
vn 0.25759971 -0.93877446 0.22879010
vn 0.26060114 -0.94971262 0.17358856
vn 0.26281027 -0.95776338 0.11670505
vn 0.26416296 -0.96269301 5.8652351e-2
vn 0.26461851 -0.96435317 -5.3799667e-16
vn 0.26416296 -0.96269301 -5.8652351e-2
vn 0.26281027 -0.95776338 -0.11670505
vn 0.26060114 -0.94971262 -0.17358856
vn 0.25759971 -0.93877446 -0.22879010
vn -0.23040784 -0.94542290 0.23040784
vn -0.17484516 -0.95659867 0.23312690
vn -0.11756447 -0.96482795 0.23512897
vn -5.9088789e-2 -0.96986841 0.23635520
vn 5.9812169e-16 -0.97156616 0.23676822
vn 5.9088789e-2 -0.96986841 0.23635520
vn 0.11756447 -0.96482795 0.23512897
vn 0.17484516 -0.95659867 0.23312690
vn 0.23040784 -0.94542290 0.23040784
vn 0.23312690 -0.95659867 0.17484516
vn 0.17695823 -0.96817951 0.17695823
vn 0.11901016 -0.97671331 0.17851525
vn 5.9823121e-2 -0.98194294 0.17946938
vn -7.6048100e-16 -0.98370486 0.17979083
vn -5.9823121e-2 -0.98194294 0.17946938
vn -0.11901016 -0.97671331 0.17851525
vn -0.17695823 -0.96817951 0.17695823
vn -0.23312690 -0.95659867 0.17484516
vn 0.23512897 -0.96482795 0.11756447
vn 0.17851525 -0.97671331 0.11901016
vn 0.12007600 -0.98547628 0.12007600
vn 6.0364689e-2 -0.99084838 0.12072938
vn -1.7363001e-17 -0.99265866 0.12094955
vn -6.0364689e-2 -0.99084838 0.12072938
vn -0.12007600 -0.98547628 0.12007600
vn -0.17851525 -0.97671331 0.11901016
vn -0.23512897 -0.96482795 0.11756447
vn -0.23635520 -0.96986841 5.9088789e-2
vn -0.17946938 -0.98194294 5.9823121e-2
vn -0.12072938 -0.99084838 6.0364689e-2
vn -6.0696759e-2 -0.99630909 6.0696759e-2
vn 2.5003099e-16 -0.99814944 6.0808670e-2
vn 6.0696759e-2 -0.99630909 6.0696759e-2
vn 0.12072938 -0.99084838 6.0364689e-2
vn 0.17946938 -0.98194294 5.9823121e-2
vn 0.23635520 -0.96986841 5.9088789e-2
vn -0.23676822 -0.97156616 -1.3542378e-16
vn -0.17979083 -0.98370486 -1.4410941e-16
vn -0.12094955 -0.99265866 -1.4150846e-16
vn -6.0808670e-2 -0.99814944 -1.3977427e-16
vn 2.7954998e-16 -1.00000000 -1.3803865e-16
vn 6.0808670e-2 -0.99814944 -1.3456529e-16
vn 0.12094955 -0.99265866 -1.3022251e-16
vn 0.17979083 -0.98370486 -6.0769029e-17
vn 0.23676822 -0.97156616 -2.6563895e-16
vn -0.23635520 -0.96986841 -5.9088789e-2
vn -0.17946938 -0.98194294 -5.9823121e-2
vn -0.12072938 -0.99084838 -6.0364689e-2
vn -6.0696759e-2 -0.99630909 -6.0696759e-2
vn 2.7954854e-16 -0.99814944 -6.0808670e-2
vn 6.0696759e-2 -0.99630909 -6.0696759e-2
vn 0.12072938 -0.99084838 -6.0364689e-2
vn 0.17946938 -0.98194294 -5.9823121e-2
vn 0.23635520 -0.96986841 -5.9088789e-2
vn -0.23512897 -0.96482795 -0.11756447
vn -0.17851525 -0.97671331 -0.11901016
vn -0.12007600 -0.98547628 -0.12007600
vn -6.0364689e-2 -0.99084838 -0.12072938
vn -4.3407502e-18 -0.99265866 -0.12094955
vn 6.0364689e-2 -0.99084838 -0.12072938
vn 0.12007600 -0.98547628 -0.12007600
vn 0.17851525 -0.97671331 -0.11901016
vn 0.23512897 -0.96482795 -0.11756447
vn -0.23312690 -0.95659867 -0.17484516
vn -0.17695823 -0.96817951 -0.17695823
vn -0.11901016 -0.97671331 -0.17851525
vn -5.9823121e-2 -0.98194294 -0.17946938
vn 5.4952565e-16 -0.98370486 -0.17979083
vn 5.9823121e-2 -0.98194294 -0.17946938
vn 0.11901016 -0.97671331 -0.17851525
vn 0.17695823 -0.96817951 -0.17695823
vn 0.23312690 -0.95659867 -0.17484516
vn -0.23040784 -0.94542290 -0.23040784
vn -0.17484516 -0.95659867 -0.23312690
vn -0.11756447 -0.96482795 -0.23512897
vn -5.9088789e-2 -0.96986841 -0.23635520
vn 0.0000000e+0 -0.97156616 -0.23676822
vn 5.9088789e-2 -0.96986841 -0.23635520
vn 0.11756447 -0.96482795 -0.23512897
vn 0.17484516 -0.95659867 -0.23312690
vn 0.23040784 -0.94542290 -0.23040784
g cube2_default
usemtl default
s 1
f 1//1 14//14 41//41 5//5
f 2//2 13//13 113//113 23//23
f 5//5 41//41 58//58 6//6
f 6//6 58//58 67//67 7//7
f 7//7 67//67 68//68 8//8
f 8//8 68//68 77//77 9//9
f 9//9 77//77 86//86 10//10
f 10//10 86//86 95//95 11//11
f 11//11 95//95 104//104 12//12
f 12//12 104//104 113//113 13//13
f 15//15 42//42 41//41 14//14
f 16//16 43//43 42//42 15//15
f 17//17 44//44 43//43 16//16
f 18//18 45//45 44//44 17//17
f 19//19 46//46 45//45 18//18
f 20//20 47//47 46//46 19//19
f 21//21 48//48 47//47 20//20
f 22//22 49//49 48//48 21//21
f 23//23 113//113 114//114 24//24
f 24//24 114//114 115//115 25//25
f 25//25 115//115 116//116 26//26
f 26//26 116//116 117//117 27//27
f 27//27 117//117 118//118 28//28
f 28//28 118//118 119//119 29//29
f 29//29 119//119 120//120 30//30
f 30//30 120//120 121//121 31//31
f 31//31 121//121 40//40 4//4
f 32//32 49//49 22//22 3//3
f 33//33 50//50 49//49 32//32
f 34//34 59//59 50//50 33//33
f 35//35 76//76 59//59 34//34
f 36//36 85//85 76//76 35//35
f 37//37 94//94 85//85 36//36
f 38//38 103//103 94//94 37//37
f 39//39 112//112 103//103 38//38
f 40//40 121//121 112//112 39//39
f 42//42 57//57 58//58 41//41
f 43//43 56//56 57//57 42//42
f 44//44 55//55 56//56 43//43
f 45//45 54//54 55//55 44//44
f 46//46 53//53 54//54 45//45
f 47//47 52//52 53//53 46//46
f 48//48 51//51 52//52 47//47
f 49//49 50//50 51//51 48//48
f 50//50 59//59 60//60 51//51
f 51//51 60//60 61//61 52//52
f 52//52 61//61 62//62 53//53
f 53//53 62//62 63//63 54//54
f 54//54 63//63 64//64 55//55
f 55//55 64//64 65//65 56//56
f 56//56 65//65 66//66 57//57
f 57//57 66//66 67//67 58//58
f 59//59 76//76 75//75 60//60
f 60//60 75//75 74//74 61//61
f 61//61 74//74 73//73 62//62
f 62//62 73//73 72//72 63//63
f 63//63 72//72 71//71 64//64
f 64//64 71//71 70//70 65//65
f 65//65 70//70 69//69 66//66
f 66//66 69//69 68//68 67//67
f 69//69 78//78 77//77 68//68
f 70//70 79//79 78//78 69//69
f 71//71 80//80 79//79 70//70
f 72//72 81//81 80//80 71//71
f 73//73 82//82 81//81 72//72
f 74//74 83//83 82//82 73//73
f 75//75 84//84 83//83 74//74
f 76//76 85//85 84//84 75//75
f 78//78 87//87 86//86 77//77
f 79//79 88//88 87//87 78//78
f 80//80 89//89 88//88 79//79
f 81//81 90//90 89//89 80//80
f 82//82 91//91 90//90 81//81
f 83//83 92//92 91//91 82//82
f 84//84 93//93 92//92 83//83
f 85//85 94//94 93//93 84//84
f 87//87 96//96 95//95 86//86
f 88//88 97//97 96//96 87//87
f 89//89 98//98 97//97 88//88
f 90//90 99//99 98//98 89//89
f 91//91 100//100 99//99 90//90
f 92//92 101//101 100//100 91//91
f 93//93 102//102 101//101 92//92
f 94//94 103//103 102//102 93//93
f 96//96 105//105 104//104 95//95
f 97//97 106//106 105//105 96//96
f 98//98 107//107 106//106 97//97
f 99//99 108//108 107//107 98//98
f 100//100 109//109 108//108 99//99
f 101//101 110//110 109//109 100//100
f 102//102 111//111 110//110 101//101
f 103//103 112//112 111//111 102//102
f 105//105 114//114 113//113 104//104
f 106//106 115//115 114//114 105//105
f 107//107 116//116 115//115 106//106
f 108//108 117//117 116//116 107//107
f 109//109 118//118 117//117 108//108
f 110//110 119//119 118//118 109//109
f 111//111 120//120 119//119 110//110
f 112//112 121//121 120//120 111//111
